<svg id="reset" xmlns="http://www.w3.org/2000/svg" xmlns:xlink="http://www.w3.org/1999/xlink" viewBox="0 0 300 300" shape-rendering="geometricPrecision" text-rendering="geometricPrecision"><g id="reset-s-g1" transform="translate(-.196656-14.866218)"><polygon id="reset-s-polygon1" points="0,-19.615692 25.980762,15 -25.980762,15 0,-19.615692" transform="matrix(0-1.155592 1.15559 0 132.66615 95.160083)" stroke="#fff" stroke-width="5" stroke-linejoin="round" fill="#fff"/><polygon id="reset-s-polygon2" points="0,-19.615692 25.980762,15 -25.980762,15 0,-19.615692" transform="matrix(0 1.155592-1.15559 0 167.33385 234.572353)" stroke="#fff" stroke-width="5" stroke-linejoin="round" fill="#fff"/><path id="reset-s-path1" d="M150.000001,98.160083c0,0,46.261401,1.504995,61.993574,39.591247s-6.958923,65.282873-6.958923,65.282873" transform="translate(.000001 0.000002)" fill="none" stroke="#fff" stroke-width="20" stroke-linecap="round"/><path id="reset-s-path2" d="M150.000001,98.160083c0,0,46.261401,1.504995,61.993574,39.591247s-6.958923,65.282873-6.958923,65.282873" transform="matrix(-1 0 0-1 300.393312 330.266323)" fill="none" stroke="#fff" stroke-width="20" stroke-linecap="round"/></g></svg>
